<svg width="17" height="16" viewBox="0 0 17 16" fill="none" xmlns="http://www.w3.org/2000/svg">
<path d="M2.16668 4.83325H14.8333V15.1249C14.8333 15.3349 14.7499 15.5362 14.6015 15.6847C14.453 15.8332 14.2516 15.9166 14.0417 15.9166H2.95834C2.74838 15.9166 2.54702 15.8332 2.39855 15.6847C2.25008 15.5362 2.16668 15.3349 2.16668 15.1249V4.83325ZM3.75001 6.41658V14.3333H13.25V6.41658H3.75001ZM6.12501 7.99992H7.70834V12.7499H6.12501V7.99992ZM9.29168 7.99992H10.875V12.7499H9.29168V7.99992ZM4.54168 2.45825V0.874919C4.54168 0.664956 4.62508 0.463592 4.77355 0.315126C4.92202 0.166659 5.12338 0.083252 5.33334 0.083252H11.6667C11.8766 0.083252 12.078 0.166659 12.2265 0.315126C12.3749 0.463592 12.4583 0.664956 12.4583 0.874919V2.45825H16.4167V4.04158H0.583344V2.45825H4.54168ZM6.12501 1.66659V2.45825H10.875V1.66659H6.12501Z" fill="#757575"/>
</svg>
