<svg width="19" height="19" viewBox="0 0 19 19" fill="none" xmlns="http://www.w3.org/2000/svg">
<g clip-path="url(#clip0_1034_1009)">
<path d="M12.3333 9.5H14.8333L11.5 12.5L8.16666 9.5H10.6667V6.5H12.3333V9.5ZM14 3.5H5.66666V15.5H17.3333V6.5H14V3.5ZM4 2.744C4 2.333 4.3725 2 4.8325 2H14.8333L19 5.75V16.2448C19.0007 16.3432 18.98 16.4409 18.9388 16.5322C18.8976 16.6234 18.8369 16.7065 18.76 16.7766C18.6832 16.8468 18.5918 16.9026 18.4909 16.9409C18.3901 16.9792 18.2819 16.9993 18.1725 17H4.8275C4.60865 16.9986 4.39918 16.9198 4.24435 16.7806C4.08951 16.6414 4.00175 16.453 4 16.256V2.744Z" fill="#03053D"/>
</g>
<defs>
<clipPath id="clip0_1034_1009">
<rect width="19" height="19" fill="white"/>
</clipPath>
</defs>
</svg>
